<svg xmlns="http://www.w3.org/2000/svg" fill="none" viewBox="0 0 256 256"><rect width="256" height="256" fill="#fff" rx="80"/><path fill="url(#a)" d="m205.299 83.861-3.859-6.74a3.946 3.946 0 0 0-4.697-1.782 3.954 3.954 0 0 0-1.529.949l-8.813 8.813a3.97 3.97 0 0 0-.495 5.011 68.992 68.992 0 0 1 7.673 15.798 69.234 69.234 0 0 1-34 83.669 69.246 69.246 0 0 1-31.576 7.646 68.6 68.6 0 0 1-32.447-8.056l14.939-14.933a49.43 49.43 0 0 0 66.936-46.233 48.082 48.082 0 0 0-.282-5.118 49.316 49.316 0 0 0-4.66-16.43 3.963 3.963 0 0 0-6.333-1.059l-8.945 8.945a3.952 3.952 0 0 0-1.059 3.696l.752 3.213a29.654 29.654 0 0 1-43.565 32.541l-3.934-2.255a3.955 3.955 0 0 0-4.767.626l-36.493 36.45a3.956 3.956 0 0 0-.692 4.659c.266.497.634.93 1.08 1.273l5.375 4.121A88.168 88.168 0 0 0 128.003 217C177.074 217 217 177.074 217 128.003a89.025 89.025 0 0 0-11.701-44.142Z"/><path fill="url(#b)" d="M182.092 57.335A88.164 88.164 0 0 0 128.004 39C78.926 39 39 78.926 39 128.004a89.049 89.049 0 0 0 11.7 44.141l3.86 6.74a3.96 3.96 0 0 0 2.925 1.978c.608.08 1.225.018 1.805-.183a3.949 3.949 0 0 0 1.533-.968l8.807-8.807a3.97 3.97 0 0 0 .495-5.011 69.234 69.234 0 0 1-7.673-15.798A69.237 69.237 0 0 1 96.433 66.43a69.242 69.242 0 0 1 31.571-7.655 68.589 68.589 0 0 1 32.44 8.056l-14.958 14.94a49.422 49.422 0 0 0-66.93 46.233c0 .821.22 4.566.289 5.212a49.666 49.666 0 0 0 4.66 16.329c.275.57.682 1.065 1.188 1.446a3.975 3.975 0 0 0 3.584.609 3.977 3.977 0 0 0 1.598-.971l8.945-8.939a3.957 3.957 0 0 0 1.052-3.721l-.739-3.188a30.059 30.059 0 0 1-.789-6.777 29.64 29.64 0 0 1 44.342-25.738l3.94 2.255a3.959 3.959 0 0 0 4.761-.627l36.468-36.468a3.955 3.955 0 0 0 .692-4.664 3.962 3.962 0 0 0-1.08-1.274l-5.375-4.153Z"/><defs><linearGradient id="a" x1="96.615" x2="221.905" y1="222.668" y2="97.378" gradientUnits="userSpaceOnUse"><stop stop-color="#B090F5"/><stop offset="1" stop-color="#5FBFFF"/></linearGradient><linearGradient id="b" x1="39" x2="189.014" y1="109.939" y2="109.939" gradientUnits="userSpaceOnUse"><stop stop-color="#68D7FA"/><stop offset="1" stop-color="#7EF1B3"/></linearGradient></defs></svg>